<svg id="Layer_5" enable-background="new 0 0 64 64" height="512" viewBox="0 0 64 64" width="512" xmlns="http://www.w3.org/2000/svg"><g><path d="m13.12 33h-.24c-5.448 0-9.88 4.432-9.88 9.88 0 1.854.52 3.664 1.502 5.235l7.816 12.507c.295.473 1.068.473 1.363 0l7.816-12.507c.983-1.571 1.503-3.382 1.503-5.235 0-5.448-4.432-9.88-9.88-9.88zm-.12 17c-3.866 0-7-3.134-7-7s3.134-7 7-7 7 3.134 7 7-3.134 7-7 7z"/><path d="m56.983 45.143 3.357-2.238c.413-.276.66-.736.66-1.232 0-.596-.353-1.129-.898-1.36-7.102-3.004-7.102-4.623-7.102-5.313 0-.352.047-.719.141-1.094.575-2.3 2.718-3.906 5.211-3.906h1.648c.551 0 1-.448 1-1s-.449-1-1-1h-1.165c-1.451 0-2.814-.564-3.84-1.591l-.404-.404c-.648-.649-1.51-1.005-2.426-1.005h-4.742l-.29-.502c-.038-.065-3.832-6.498-11.133-6.498-6.341 0-11.446 3.358-12.86 4.388-.552.4-1.198.612-1.869.612h-.117c-1.739 0-3.154-1.415-3.154-3.154 0-1.362.322-2.726.931-3.944l.747-1.494c.211-.422.322-.892.322-1.363 0-1.679-1.366-3.045-3.045-3.045h-1.634c-1.79 0-3.453-.966-4.341-2.52l-2.324-4.067c-.146-.255-.419-.413-.712-.413h-.124c-.452 0-.82.367-.82.819 0 .055.005.109.016.161l1.498 7.489c.36 1.8-.292 3.647-1.702 4.822l-3.092 2.578c-.458.381-.72.942-.72 1.536v.595c0 1.103.897 2 2 2 .43 0 .856-.142 1.2-.4l2.6-1.949c.56-.42 1.252-.65 1.95-.65 1.792 0 3.25 1.458 3.25 3.25 0 .7-.231 1.393-.651 1.951-1.295 1.726-2.087 3.807-2.291 5.954.595-.094 1.201-.156 1.822-.156h.24c6.551 0 11.88 5.329 11.88 11.88 0 2.229-.625 4.406-1.806 6.296l-1.14 1.824h2.327c1.421 0 2.758-.554 3.763-1.559l1.297-1.297c1.383-1.382 3.222-2.144 5.178-2.144 3.035 0 5.79 1.909 6.856 4.751.728 1.943 2.612 3.249 4.688 3.249h3.584c2.359 0 4.586 1.146 5.958 3.066l2.319 3.247c.307.43.806.687 1.335.687.905 0 1.641-.736 1.641-1.641v-.479c0-.353-.117-.702-.328-.984l-4.781-6.375c-.575-.765-.891-1.714-.891-2.672 0-1.493.741-2.878 1.983-3.706zm-19.202-22.948c-.578-.13-1.178-.195-1.781-.195-3.49 0-6.558 1.288-8.517 2.368l-.966-1.752c2.165-1.193 5.567-2.616 9.483-2.616.75 0 1.497.082 2.219.244zm3.594 1.775c-.576-.461-1.185-.848-1.81-1.149l.869-1.801c.76.366 1.497.834 2.19 1.39z"/></g></svg>