<svg height="512" viewBox="0 0 58 58" width="512" xmlns="http://www.w3.org/2000/svg"><g id="Page-1" fill="none" fill-rule="evenodd"><g id="034---Scissors-Cutting-Paper" fill-rule="nonzero"><path id="Shape" d="m24 37.11c-.3385825-.311559-.6959172-.6021022-1.07-.87l-3.43-8.24 9.5-1z" fill="#808b8c"/><path id="Shape" d="m30.26 32.47c-1.9274339-.8066249-4.1508339.0086218-5.1 1.87l-.06.13-.45 1.08-.65 1.56c-.3385825-.311559-.6959172-.6021022-1.07-.87-1.1069271-.791315-2.3415406-1.3866354-3.65-1.76-6.2517684-1.7581462-12.76777596 1.7762957-14.70331614 7.9754384-1.93554019 6.1991427 1.41183157 12.8131987 7.55331614 14.9245616 6.0912193 1.9454999 12.6516369-1.1384198 15.04-7.07l.81-1.95 4.06-9.74.38-.92c.1634036-.3878524.261398-.8001046.29-1.22.0166123-.1024506.02331-.2062641.02-.31-.0002009-1.6190856-.9747612-3.0789532-2.47-3.7zm-8.75 15.85c-.9342395 2.2450868-3.1289342 3.7063006-5.5606418 3.7022401-2.4317075-.0040605-4.6215101-1.4725956-5.5482467-3.7207899-.92673651-2.2481943-.40788897-4.8332722 1.3145908-6.5497458 1.7224797-1.7164736 4.3093543-2.2262883 6.5542977-1.2917044 1.4739989.6101759 2.6443157 1.7822393 3.2522927 3.2571465s.6035536 3.1312147-.0122927 4.6028535z" fill="#e04c34"/><path id="Shape" d="m27.8 28h-25.8c-1.10320187-.0032948-1.9967052-.8967981-2-2v-24c.0032948-1.10320187.89679813-1.9967052 2-2h54c1.1032019.0032948 1.9967052.89679813 2 2v24c-.0032948 1.1032019-.8967981 1.9967052-2 2z" fill="#ed9a00"/><circle id="Oval" cx="28.342" cy="37.084" fill="#ebeff0" r="1"/><path id="Shape" d="m50.73 40.64c-2.6085976-5.1480011-8.4962807-7.7293625-14.05-6.16-1.3090018.3767519-2.5436023.9754486-3.65 1.77l-.61 1.45-.38.92-4.06 9.74.81 1.95c2.3902492 5.9301453 8.94657 9.0164985 15.04 7.08 3.2901097-1.1122923 5.9378945-3.5939574 7.2607364-6.8052041s1.1912916-6.837832-.3607364-9.9447959zm-8.42 10.92c-2.2449434.9345839-4.831818.4247692-6.5542977-1.2917044-1.7224798-1.7164736-2.2413273-4.3015515-1.3145908-6.5497458.9267366-2.2481943 3.1165392-3.7167294 5.5482467-3.7207899 2.4317076-.0040605 4.6264023 1.4571533 5.5606418 3.7022401 1.2737109 3.0651836-.1762838 6.5827635-3.24 7.86z" fill="#ba3a23"/><g fill="#cc5518"><path id="Shape" d="m29 0v2c0 .55228475-.4477153 1-1 1s-1-.44771525-1-1v-2z"/><path id="Shape" d="m28 8c-.5522847 0-1-.44771525-1-1v-1c0-.55228475.4477153-1 1-1s1 .44771525 1 1v1c0 .55228475-.4477153 1-1 1z"/><path id="Shape" d="m28 13c-.5522847 0-1-.4477153-1-1v-1c0-.5522847.4477153-1 1-1s1 .4477153 1 1v1c0 .5522847-.4477153 1-1 1z"/><path id="Shape" d="m28 18c-.5522847 0-1-.4477153-1-1v-1c0-.5522847.4477153-1 1-1s1 .4477153 1 1v1c0 .5522847-.4477153 1-1 1z"/></g><path id="Shape" d="m42.26 14.09-5.79 13.91h-.01l-3.43 8.25-.61 1.45c.1634036-.3878524.261398-.8001046.29-1.22.0166123-.1024506.02331-.2062641.02-.31.0003737-1.8501613-1.2663298-3.4599044-3.0646891-3.8946465-1.7983594-.4347421-3.6605035.4186218-4.5053109 2.0646465l2.64-6.34 9.73-23.38c.1133779-.26737085.3361584-.47314739.6116716-.56498514.2755133-.09183775.5772036-.06088481.8283284.08498514 3.4187705 2.03674873 4.8207196 6.2766862 3.29 9.95z" fill="#bcc2c6"/></g></g></svg>